<?xml version="1.0" encoding="UTF-8" standalone="no"?>
<!-- Created with Inkscape (http://www.inkscape.org/) -->

<svg
   version="1.1"
   id="svg189"
   width="48"
   height="48"
   viewBox="0 0 48 48"
   xml:space="preserve"
   xmlns="http://www.w3.org/2000/svg"
   xmlns:svg="http://www.w3.org/2000/svg"><defs
     id="defs193" /><g
     id="g195"><path
       id="path1103"
       style="opacity:1;fill:none;fill-opacity:1;stroke:#120116;stroke-width:1.5;stroke-linecap:round;stroke-linejoin:round;stroke-miterlimit:16;stroke-dasharray:none;paint-order:stroke fill markers"
       d="m 25.686183,18.716628 c 0.334134,1.473689 0.432885,2.082917 0.505854,3.203747 M 23.36,13.76 C 24.274952,9.9278315 28.425846,2.2905186 30.463124,2.8023848 32.905801,3.4161073 28.984236,10.237475 28.63996,12.48 m -18.381698,1.569953 c 2.891151,-0.417395 5.012771,-4.4076621 5.711387,-6.4130443 0.853598,-2.4502599 3.142829,-4.7796481 4.942238,-3.9018708 1.636807,0.7984578 -0.359779,5.5417794 -1.940017,7.7411551 M 25.563332,8.2353867 C 26.878545,7.3218063 28.714179,7.6634544 29.899718,8.7837 M 15.573382,8.9926737 c 2.66569,1.5205353 4.229691,3.4094633 5.797173,6.5556513 M 30.56,12.96 c 1.525066,-1.215345 5.721285,-3.8640147 7.388526,-2.044727 1.929489,2.105451 -1.774569,4.738901 -4.337049,5.455612 C 35.857299,17.700819 37.464478,18.9262 39.36,20.64 M 32,12.48 c 0.3877,1.846201 1.437865,5.341871 1.205144,7.260799 m -16.30135,-6.86286 c 0.422589,1.384688 0.489821,1.653826 0.514886,2.289795 -1.312336,0.96292 -3.365579,1.820098 -7.15583,2.374793 0.733439,1.646748 1.716952,2.662292 2.935719,3.69388 -2.166275,0.238345 -3.7756181,0.134057 -5.1596849,0.495798 C 7.9268521,24.984771 12.688194,28.390317 16.32,27.84 M 12.884111,14.802509 c -0.883988,0.495429 -1.490989,0.737655 -2.325136,0.958004 M 24.96,16.64 c 1.66815,-2.004544 4.217827,-0.480797 4.130914,1.819943 m -11.218502,-0.07718 c 1.924923,0.632174 4.273336,0.70508 5.94864,0.310044 m -2.813464,3.758528 c 0.126239,-1.056425 0.157921,-2.11285 0.13452,-3.169274 m 3.321158,2.287608 c -0.786484,1.391784 -0.236413,1.925878 1.178519,1.810937 2.336813,-0.18983 4.3749,-1.943564 6.677255,-1.603638 4.351637,0.642487 -1.945534,6.463975 -3.83902,8.143032 2.585874,0.71418 5.010795,0.0137 7.643332,-0.48 m 3.464197,-0.558275 c -2.005704,0.192013 -3.158207,-3.010353 -3.176495,-5.422427 M 16.16,23.04 c -1.83653,1.294538 0.208894,2.486432 5.379181,2.00787 3.500165,-0.323975 4.641941,0.442724 7.740819,1.03213 m 3.533114,-0.62726 c 1.763023,-1.861429 4.631443,-2.586755 5.43513,-2.728243 m -6.158953,4.37018 c 1.293902,0.209605 2.973204,0.05092 4.473519,-0.321694 m -9.604871,4.280132 c 1.362869,1.450908 0.553524,2.676689 -0.816341,2.004902 -1.091457,-0.535256 -2.441091,-2.237639 -2.75907,-4.068253 -1.51985,1.550532 -3.052185,2.454234 -3.890394,1.350412 C 18.72523,29.330253 19.860228,27.246641 21.28,27.04 m 0.236222,7.335869 c 1.470985,0.218345 1.908084,2.631077 1.738787,4.108511 -0.177551,1.549461 -1.192356,3.729192 -2.750972,3.78462 -1.718837,0.06113 -2.238168,-2.398274 -1.765775,-4.561862 0.308419,-1.412575 1.347777,-3.543557 2.77796,-3.331269 z M 29.92,36.64 c 0.514913,-1.307542 3.759252,-2.889606 4.818679,-1.429935 0.84862,1.169223 -1.087334,2.3203 -3.38341,3.84463 3.966076,-1.057248 5.120878,-0.634403 5.733963,0.434646 1.225649,2.137192 -2.44636,5.313147 -11.440609,5.869311 C 15.839257,45.96522 12.350384,44.141078 8.7436126,41.956048 M 12.32,37.28 c 0.448315,-1.498412 1.654234,-4.405176 3.449088,-3.342435 1.465247,0.867579 -1.071098,6.872102 -2.058772,9.432318 2.303154,-2.503606 9.88975,-9.37448 12.856203,-8.143427 2.864437,1.188717 -0.204265,5.536646 -2.653873,7.92748 2.703191,-0.564156 5.135282,-1.212138 7.134173,-1.676621" /></g></svg>
